:FULLY-SPECIFIED
:FORCE-ALL-JOINTS-BE-3DOF
:DEGREES
679
root 5.43233 17.9 1.42656 15.7526 -32.4913 2.36488
lfemur -31.8227 17.4391 -1.28037
ltibia 82.7218 0 0
lfoot -14.2283 8.56721 0
ltoes 27.0476 0 0
rfemur -32.0276 -14.2062 23.331
rtibia 31.1937 0 0
rfoot 8.63059 -2.85436 0
rtoes 0.945134 0 0
lowerback 1.21679 -3.74935 -4.38827
upperback -1.80925 -5.14243 -1.68164
thorax -2.26496 -2.52774 0.834268
lowerneck -8.07312 -5.56468 -0.336277
upperneck 2.78681 -7.69519 5.51554
head 2.55198 -3.669 1.45662
lclavicle 1.86805e-14 -1.79781e-15 0
lhumerus -4.39028 -44.411 63.0897
lradius 75.0996 0 0
lwrist 28.687 0 0
lhand -14.5972 -1.52548 0
lfingers 7.12502 0 0
lthumb 11.5407 27.9062 0
rclavicle 1.86805e-14 -1.79781e-15 0
rhumerus -37.8763 -10.5014 -39.6923
rradius 81.0892 0 0
rwrist -12.1617 0 0
rhand -32.8493 -45.8097 0
rfingers 7.12502 0 0
rthumb -6.06808 -795.681 0
680
root 5.42691 18.0176 1.6447 15.6403 -34.6599 2.37033
lfemur -32.9965 16.9968 0.673797
ltibia 85.8027 0 0
lfoot -12.6237 8.05655 0
ltoes 27.6968 0 0
rfemur -29.9517 -13.0778 22.278
rtibia 28.6553 0 0
rfoot 9.88663 -2.39225 0
rtoes 0.518183 0 0
lowerback 1.30662 -3.68321 -4.24649
upperback -1.82413 -5.05999 -1.7393
thorax -2.35264 -2.48796 0.703947
lowerneck -7.951 -5.50239 -0.31235
upperneck 2.83292 -7.61261 5.46083
head 2.53819 -3.6306 1.44201
lclavicle 1.47986e-14 -3.57416e-16 0
lhumerus -1.92127 -42.5764 58.9635
lradius 75.1276 0 0
lwrist 28.8932 0 0
lhand -15.2999 -1.87382 0
lfingers 7.12502 0 0
lthumb 10.8634 27.6005 0
rclavicle 1.47986e-14 -3.57416e-16 0
rhumerus -37.2663 -10.5115 -37.5624
rradius 82.6633 0 0
rwrist -11.8398 0 0
rhand -33.0755 -45.4495 0
rfingers 7.12502 0 0
rthumb -6.28652 -795.315 0
681
root 5.42157 18.1339 1.86022 15.5293 -36.8025 2.37572
lfemur -34.1562 16.5599 2.60449
ltibia 88.8465 0 0
lfoot -11.0383 7.55202 0
ltoes 28.3382 0 0
rfemur -27.9008 -11.9629 21.2378
rtibia 26.1474 0 0
rfoot 11.1276 -1.93569 0
rtoes 0.0963612 0 0
lowerback 1.39538 -3.61787 -4.10641
upperback -1.83884 -4.97853 -1.79626
thorax -2.43926 -2.44867 0.575192
lowerneck -7.83035 -5.44086 -0.288711
upperneck 2.87848 -7.53103 5.40679
head 2.52458 -3.59267 1.42757
lclavicle 1.09634e-14 1.06567e-15 0
lhumerus 0.518068 -40.7639 54.8868
lradius 75.1552 0 0
lwrist 29.0969 0 0
lhand -15.9942 -2.21797 0
lfingers 7.12502 0 0
lthumb 10.1943 27.2985 0
rclavicle 1.09634e-14 1.06567e-15 0
rhumerus -36.6637 -10.5215 -35.458
rradius 84.2185 0 0
rwrist -11.5217 0 0
rhand -33.2991 -45.0936 0
rfingers 7.12502 0 0
rthumb -6.50233 -794.954 0
682
root 5.41631 18.2481 2.07206 15.4201 -38.9086 2.38101
lfemur -35.2961 16.1303 4.50231
ltibia 91.8386 0 0
lfoot -9.4799 7.05608 0
ltoes 28.9687 0 0
rfemur -25.8848 -10.867 20.2152
rtibia 23.6822 0 0
rfoot 12.3474 -1.48691 0
rtoes -0.318279 0 0
lowerback 1.48263 -3.55364 -3.96871
upperback -1.85329 -4.89846 -1.85226
thorax -2.52442 -2.41004 0.448629
lowerneck -7.71175 -5.38038 -0.265473
upperneck 2.92326 -7.45083 5.35366
head 2.51119 -3.55539 1.41339
lclavicle 7.1935e-15 2.46453e-15 0
lhumerus 2.91588 -38.9823 50.8795
lradius 75.1824 0 0
lwrist 29.2971 0 0
lhand -16.6768 -2.55626 0
lfingers 7.12502 0 0
lthumb 9.53651 27.0016 0
rclavicle 7.1935e-15 2.46453e-15 0
rhumerus -36.0714 -10.5313 -33.3895
rradius 85.7472 0 0
rwrist -11.2091 0 0
rhand -33.5188 -44.7438 0
rfingers 7.12502 0 0
rthumb -6.71448 -794.598 0
683
root 5.41117 18.3599 2.27919 15.3135 -40.9679 2.38619
lfemur -36.4106 15.7104 6.35787
ltibia 94.764 0 0
lfoot -7.95621 6.57118 0
ltoes 29.5851 0 0
rfemur -23.9137 -9.79551 19.2154
rtibia 21.2719 0 0
rfoot 13.54 -1.04812 0
rtoes -0.723686 0 0
lowerback 1.56793 -3.49084 -3.83408
upperback -1.86743 -4.82018 -1.90701
thorax -2.60767 -2.37227 0.324884
lowerneck -7.5958 -5.32124 -0.242754
upperneck 2.96705 -7.37242 5.30172
head 2.49811 -3.51893 1.39951
lclavicle 3.50753e-15 3.83224e-15 0
lhumerus 5.2603 -37.2403 46.9615
lradius 75.209 0 0
lwrist 29.4929 0 0
lhand -17.3441 -2.88702 0
lfingers 7.12502 0 0
lthumb 8.89341 26.7113 0
rclavicle 3.50753e-15 3.83224e-15 0
rhumerus -35.4922 -10.5409 -31.3671
rradius 87.2419 0 0
rwrist -10.9035 0 0
rhand -33.7336 -44.4018 0
rfingers 7.12502 0 0
rthumb -6.92189 -794.25 0
684
root 5.40617 18.4685 2.48055 15.2097 -42.9698 2.39122
lfemur -37.4941 15.3021 8.16177
ltibia 97.608 0 0
lfoot -6.47493 6.09979 0
ltoes 30.1844 0 0
rfemur -21.9975 -8.75385 18.2434
rtibia 18.9287 0 0
rfoot 14.6995 -0.62154 0
rtoes -1.11781 0 0
lowerback 1.65086 -3.42979 -3.7032
upperback -1.88117 -4.74407 -1.96023
thorax -2.68861 -2.33555 0.204584
lowerneck -7.48307 -5.26375 -0.220666
upperneck 3.00961 -7.29619 5.25123
head 2.48538 -3.48349 1.38603
lclavicle -7.58363e-17 5.16187e-15 0
lhumerus 7.53946 -35.5468 43.1525
lradius 75.2348 0 0
lwrist 29.6832 0 0
lhand -17.9928 -3.20858 0
lfingers 7.12502 0 0
lthumb 8.26821 26.4291 0
rclavicle -7.58363e-17 5.16187e-15 0
rhumerus -34.9292 -10.5502 -29.4009
rradius 88.695 0 0
rwrist -10.6063 0 0
rhand -33.9425 -44.0693 0
rfingers 7.12502 0 0
rthumb -7.12354 -793.912 0
685
root 5.40135 18.5734 2.6751 15.1095 -44.9039 2.39608
lfemur -38.541 14.9076 9.90464
ltibia 100.356 0 0
lfoot -5.04378 5.64434 0
ltoes 30.7634 0 0
rfemur -20.1461 -7.74744 17.3044
rtibia 16.6648 0 0
rfoot 15.8197 -0.209399 0
rtoes -1.49859 0 0
lowerback 1.73098 -3.3708 -3.57675
upperback -1.89444 -4.67054 -2.01165
thorax -2.76681 -2.30008 0.0883549
lowerneck -7.37415 -5.2082 -0.199326
upperneck 3.05074 -7.22254 5.20244
head 2.47309 -3.44925 1.373
lclavicle -3.53794e-15 6.44652e-15 0
lhumerus 9.74149 -33.9107 39.4724
lradius 75.2598 0 0
lwrist 29.8671 0 0
lhand -18.6196 -3.51925 0
lfingers 7.12502 0 0
lthumb 7.66417 26.1564 0
rclavicle -3.53794e-15 6.44652e-15 0
rhumerus -34.3852 -10.5593 -27.5013
rradius 90.0989 0 0
rwrist -10.3192 0 0
rhand -34.1443 -43.748 0
rfingers 7.12502 0 0
rthumb -7.31836 -793.586 0
686
root 5.39671 18.6741 2.86179 15.0134 -46.7599 2.40074
lfemur -39.5455 14.5291 11.5771
ltibia 102.992 0 0
lfoot -3.67047 5.2073 0
ltoes 31.319 0 0
rfemur -18.3695 -6.78169 16.4032
rtibia 14.4923 0 0
rfoot 16.8947 0.186086 0
rtoes -1.86399 0 0
lowerback 1.80787 -3.3142 -3.4554
upperback -1.90718 -4.59998 -2.061
thorax -2.84185 -2.26604 -0.0231771
lowerneck -7.26964 -5.1549 -0.178849
upperneck 3.0902 -7.15187 5.15563
head 2.4613 -3.41639 1.3605
lclavicle -6.86014e-15 7.67924e-15 0
lhumerus 11.8545 -32.3406 35.9411
lradius 75.2837 0 0
lwrist 30.0435 0 0
lhand -19.221 -3.81737 0
lfingers 7.12502 0 0
lthumb 7.08454 25.8947 0
rclavicle -6.86014e-15 7.67924e-15 0
rhumerus -33.8632 -10.5679 -25.6784
rradius 91.446 0 0
rwrist -10.0437 0 0
rhand -34.3379 -43.4398 0
rfingers 7.12502 0 0
rthumb -7.50531 -793.272 0
687
root 5.3923 18.77 3.03956 14.9218 -48.5273 2.40518
lfemur -40.5021 14.1687 13.1697
ltibia 105.503 0 0
lfoot -2.3627 4.79112 0
ltoes 31.8481 0 0
rfemur -16.6777 -5.86205 15.5451
rtibia 12.4236 0 0
rfoot 17.9183 0.562694 0
rtoes -2.21194 0 0
lowerback 1.88108 -3.2603 -3.33985
upperback -1.91931 -4.53279 -2.10799
thorax -2.9133 -2.23363 -0.129386
lowerneck -7.17012 -5.10414 -0.159349
upperneck 3.12778 -7.08457 5.11105
head 2.45006 -3.3851 1.34859
lclavicle -1.00238e-14 8.85313e-15 0
lhumerus 13.8667 -30.8455 32.5783
lradius 75.3065 0 0
lwrist 30.2115 0 0
lhand -19.7938 -4.10126 0
lfingers 7.12502 0 0
lthumb 6.53258 25.6456 0
rclavicle -1.00238e-14 8.85313e-15 0
rhumerus -33.3661 -10.5762 -23.9426
rradius 92.7289 0 0
rwrist -9.78136 0 0
rhand -34.5223 -43.1462 0
rfingers 7.12502 0 0
rthumb -7.68333 -792.974 0
688
root 5.38814 18.8605 3.20738 14.8354 -50.1957 2.40938
lfemur -41.4051 13.8284 14.6731
ltibia 107.874 0 0
lfoot -1.1282 4.39825 0
ltoes 32.3475 0 0
rfemur -15.0807 -4.99392 14.7351
rtibia 10.4708 0 0
rfoot 18.8846 0.918205 0
rtoes -2.54041 0 0
lowerback 1.9502 -3.20941 -3.23077
upperback -1.93076 -4.46936 -2.15235
thorax -2.98076 -2.20303 -0.229644
lowerneck -7.07617 -5.05623 -0.140941
upperneck 3.16325 -7.02105 5.06896
head 2.43946 -3.35557 1.33735
lclavicle -1.30102e-14 9.96126e-15 0
lhumerus 15.7662 -29.4342 29.4039
lradius 75.3281 0 0
lwrist 30.3701 0 0
lhand -20.3344 -4.36924 0
lfingers 7.12502 0 0
lthumb 6.01154 25.4104 0
rclavicle -1.30102e-14 9.96126e-15 0
rhumerus -32.8969 -10.584 -22.304
rradius 93.9399 0 0
rwrist -9.5337 0 0
rhand -34.6964 -42.8691 0
rfingers 7.12502 0 0
rthumb -7.85138 -792.692 0
